<svg width="514" height="768" viewBox="0 0 514 768" fill="none" xmlns="http://www.w3.org/2000/svg">
<rect x="257" width="256" height="258" fill="#324746"/>
<rect y="258" width="257" height="255" fill="#FDB920"/>
<rect x="257" y="513" width="257" height="255" fill="url(#paint0_linear_354_628)"/>
<rect width="19.4228" height="18.9711" transform="matrix(1 8.74228e-08 8.74228e-08 -1 411.916 127.962)" fill="#324746"/>
<rect width="19.4228" height="18.9711" transform="matrix(1 8.74228e-08 8.74228e-08 -1 339.184 127.962)" fill="#324746"/>
<rect width="19.4228" height="18.9711" transform="matrix(1 8.74228e-08 8.74228e-08 -1 430.1 127.962)" fill="#FDB920"/>
<rect width="19.4228" height="18.9711" transform="matrix(1 8.74228e-08 8.74228e-08 -1 321 127.962)" fill="#FDB920"/>
<rect width="19.4228" height="18.9711" transform="matrix(1 8.74228e-08 8.74228e-08 -1 411.916 109.557)" fill="#FDB920"/>
<rect width="19.4228" height="18.9711" transform="matrix(1 8.74228e-08 8.74228e-08 -1 411.916 164.107)" fill="#FDB920"/>
<rect width="19.4228" height="18.9711" transform="matrix(1 8.74228e-08 8.74228e-08 -1 339.184 164.107)" fill="#FDB920"/>
<rect width="19.4228" height="18.9711" transform="matrix(1 8.74228e-08 8.74228e-08 -1 339.184 109.557)" fill="#FDB920"/>
<rect width="19.4228" height="18.9711" transform="matrix(1.06977e-07 -1 -1 -1.06977e-07 412.703 128.192)" fill="#FDB920"/>
<rect width="19.4228" height="18.9711" transform="matrix(1.06977e-07 -1 -1 -1.06977e-07 412.703 94.4228)" fill="#FDB920"/>
<rect width="19.4228" height="18.9711" transform="matrix(1.06977e-07 -1 -1 -1.06977e-07 412.703 146.375)" fill="#FDB920"/>
<rect width="19.4228" height="18.9711" transform="matrix(1.06977e-07 -1 -1 -1.06977e-07 412.703 110.008)" fill="#FDB920"/>
<rect width="19.4228" height="18.9711" transform="matrix(1.06977e-07 -1 -1 -1.06977e-07 412.703 182.742)" fill="#FDB920"/>
<rect width="19.4228" height="18.9711" transform="matrix(1.06977e-07 -1 -1 -1.06977e-07 412.703 164.559)" fill="#324746"/>
<rect width="19.4228" height="18.9711" transform="matrix(1 8.74228e-08 8.74228e-08 -1 411.916 93.9713)" fill="#FDB920"/>
<rect width="19.4228" height="18.9711" transform="matrix(1 8.74228e-08 8.74228e-08 -1 411.916 145.924)" fill="#FDB920"/>
<rect width="19.4228" height="18.9711" transform="matrix(1 8.74228e-08 8.74228e-08 -1 339.184 145.924)" fill="#FDB920"/>
<rect width="19.4228" height="18.9711" transform="matrix(1 8.74228e-08 8.74228e-08 -1 339.184 93.9713)" fill="#FDB920"/>
<rect width="19.4228" height="18.9711" transform="matrix(1.06977e-07 -1 -1 -1.06977e-07 394.52 128.192)" fill="#FDB920"/>
<rect width="19.4228" height="18.9711" transform="matrix(1.06977e-07 -1 -1 -1.06977e-07 394.52 94.4228)" fill="#FDB920"/>
<rect width="19.4228" height="18.9711" transform="matrix(1.06977e-07 -1 -1 -1.06977e-07 394.52 146.375)" fill="#FDB920"/>
<rect width="19.4228" height="18.9711" transform="matrix(1.06977e-07 -1 -1 -1.06977e-07 394.52 110.008)" fill="#FDB920"/>
<rect width="19.4228" height="18.9711" transform="matrix(1.06977e-07 -1 -1 -1.06977e-07 394.52 182.742)" fill="#FDB920"/>
<rect width="19.4228" height="18.9711" transform="matrix(1.06977e-07 -1 -1 -1.06977e-07 394.52 164.559)" fill="#324746"/>
<rect width="19.4228" height="18.9711" transform="matrix(1.06977e-07 -1 -1 -1.06977e-07 376.336 128.192)" fill="#FDB920"/>
<rect width="19.4228" height="18.9711" transform="matrix(1.06977e-07 -1 -1 -1.06977e-07 376.336 94.4228)" fill="#FDB920"/>
<rect width="19.4228" height="18.9711" transform="matrix(1.06977e-07 -1 -1 -1.06977e-07 376.336 146.375)" fill="#FDB920"/>
<rect width="19.4228" height="18.9711" transform="matrix(1.06977e-07 -1 -1 -1.06977e-07 376.336 110.008)" fill="#FDB920"/>
<rect width="19.4228" height="18.9711" transform="matrix(1.06977e-07 -1 -1 -1.06977e-07 376.336 182.742)" fill="#FDB920"/>
<rect width="19.4228" height="18.9711" transform="matrix(1.06977e-07 -1 -1 -1.06977e-07 376.336 164.559)" fill="#324746"/>
<rect width="19.4228" height="18.9711" transform="matrix(1 8.74228e-08 8.74228e-08 -1 155.916 384.962)" fill="#FDB920"/>
<rect width="19.4228" height="18.9711" transform="matrix(1 8.74228e-08 8.74228e-08 -1 83.1836 384.962)" fill="#FDB920"/>
<rect width="19.4228" height="18.9711" transform="matrix(1 8.74228e-08 8.74228e-08 -1 174.1 384.962)" fill="#324746"/>
<rect width="19.4228" height="18.9711" transform="matrix(1 8.74228e-08 8.74228e-08 -1 65 384.962)" fill="#324746"/>
<rect width="19.4228" height="18.9711" transform="matrix(1 8.74228e-08 8.74228e-08 -1 155.916 366.557)" fill="#324746"/>
<rect width="19.4228" height="18.9711" transform="matrix(1 8.74228e-08 8.74228e-08 -1 155.916 421.107)" fill="#324746"/>
<rect width="19.4228" height="18.9711" transform="matrix(1 8.74228e-08 8.74228e-08 -1 83.1836 421.107)" fill="#324746"/>
<rect width="19.4228" height="18.9711" transform="matrix(1 8.74228e-08 8.74228e-08 -1 83.1836 366.557)" fill="#324746"/>
<rect width="19.4228" height="18.9711" transform="matrix(1.06977e-07 -1 -1 -1.06977e-07 156.703 385.192)" fill="#324746"/>
<rect width="19.4228" height="18.9711" transform="matrix(1.06977e-07 -1 -1 -1.06977e-07 156.703 351.423)" fill="#324746"/>
<rect width="19.4228" height="18.9711" transform="matrix(1.06977e-07 -1 -1 -1.06977e-07 156.703 403.375)" fill="#324746"/>
<rect width="19.4228" height="18.9711" transform="matrix(1.06977e-07 -1 -1 -1.06977e-07 156.703 367.009)" fill="#324746"/>
<rect width="19.4228" height="18.9711" transform="matrix(1.06977e-07 -1 -1 -1.06977e-07 156.703 439.742)" fill="#324746"/>
<rect width="19.4228" height="18.9711" transform="matrix(1.06977e-07 -1 -1 -1.06977e-07 156.703 421.559)" fill="#FDB920"/>
<rect width="19.4228" height="18.9711" transform="matrix(1 8.74228e-08 8.74228e-08 -1 155.916 350.971)" fill="#324746"/>
<rect width="19.4228" height="18.9711" transform="matrix(1 8.74228e-08 8.74228e-08 -1 155.916 402.924)" fill="#324746"/>
<rect width="19.4228" height="18.9711" transform="matrix(1 8.74228e-08 8.74228e-08 -1 83.1836 402.924)" fill="#324746"/>
<rect width="19.4228" height="18.9711" transform="matrix(1 8.74228e-08 8.74228e-08 -1 83.1836 350.971)" fill="#324746"/>
<rect width="19.4228" height="18.9711" transform="matrix(1.06977e-07 -1 -1 -1.06977e-07 138.52 385.192)" fill="#324746"/>
<rect width="19.4228" height="18.9711" transform="matrix(1.06977e-07 -1 -1 -1.06977e-07 138.52 351.423)" fill="#324746"/>
<rect width="19.4228" height="18.9711" transform="matrix(1.06977e-07 -1 -1 -1.06977e-07 138.52 403.375)" fill="#324746"/>
<rect width="19.4228" height="18.9711" transform="matrix(1.06977e-07 -1 -1 -1.06977e-07 138.52 367.009)" fill="#324746"/>
<rect width="19.4228" height="18.9711" transform="matrix(1.06977e-07 -1 -1 -1.06977e-07 138.52 439.742)" fill="#324746"/>
<rect width="19.4228" height="18.9711" transform="matrix(1.06977e-07 -1 -1 -1.06977e-07 138.52 421.559)" fill="#FDB920"/>
<rect width="19.4228" height="18.9711" transform="matrix(1.06977e-07 -1 -1 -1.06977e-07 120.336 385.192)" fill="#324746"/>
<rect width="19.4228" height="18.9711" transform="matrix(1.06977e-07 -1 -1 -1.06977e-07 120.336 351.423)" fill="#324746"/>
<rect width="19.4228" height="18.9711" transform="matrix(1.06977e-07 -1 -1 -1.06977e-07 120.336 403.375)" fill="#324746"/>
<rect width="19.4228" height="18.9711" transform="matrix(1.06977e-07 -1 -1 -1.06977e-07 120.336 367.009)" fill="#324746"/>
<rect width="19.4228" height="18.9711" transform="matrix(1.06977e-07 -1 -1 -1.06977e-07 120.336 439.742)" fill="#324746"/>
<rect width="19.4228" height="18.9711" transform="matrix(1.06977e-07 -1 -1 -1.06977e-07 120.336 421.559)" fill="#FDB920"/>
<path d="M4.08 13.34V18H1.28V8H3.78L4.04 9.58C4.88 8.42 6.14 7.7 7.62 7.7C9.6 7.7 11.18 8.78 11.98 10.54C12.76 8.8 14.26 7.7 16.1 7.7C18.98 7.7 21.04 10 21.04 13.34V18H18.24V13.34C18.24 11.54 17.06 10.28 15.38 10.28C13.7 10.28 12.56 11.54 12.56 13.34V18H9.76V13.34C9.76 11.54 8.58 10.28 6.9 10.28C5.22 10.28 4.08 11.54 4.08 13.34ZM22.9452 13.02C22.9452 9.96 25.5452 7.7 29.0652 7.7C32.6252 7.7 35.2052 9.84 35.2052 13.02C35.2052 16.14 32.6252 18.3 29.0652 18.3C25.5652 18.3 22.9452 16.04 22.9452 13.02ZM25.7452 13.02C25.7452 14.58 27.1652 15.7 29.0652 15.7C31.0652 15.7 32.4052 14.58 32.4052 13.02C32.4052 11.42 31.0652 10.28 29.0652 10.28C27.1452 10.28 25.7452 11.42 25.7452 13.02ZM44.6594 7.7V10.66C41.6794 10.66 39.9394 12.36 39.9394 15.16V18H37.1394V8H39.6394L39.9394 10.6C40.8594 8.82 42.5194 7.7 44.6594 7.7ZM46.3972 8H48.8972L49.1572 9.28C50.1772 8.28 51.6372 7.7 53.3172 7.7C56.6372 7.7 59.1372 9.96 59.1372 12.98C59.1372 16.04 56.6572 18.3 53.3172 18.3C51.6572 18.3 50.2172 17.74 49.1972 16.74V22H46.3972V8ZM56.3372 12.98C56.3372 11.34 54.8172 10.16 52.7172 10.16C50.6172 10.16 49.1972 11.32 49.1972 12.98C49.1972 14.66 50.6172 15.82 52.7172 15.82C54.8572 15.82 56.3372 14.62 56.3372 12.98ZM63.9042 13.34V18H61.1042V4H63.9042V9.62C64.7842 8.42 66.1042 7.7 67.6442 7.7C70.6442 7.7 72.7442 10 72.7442 13.34V18H69.9442V13.34C69.9442 11.54 68.6642 10.28 66.8842 10.28C65.1042 10.28 63.9042 11.54 63.9042 13.34ZM74.6444 13.02C74.6444 9.96 77.2444 7.7 80.7644 7.7C84.3244 7.7 86.9044 9.84 86.9044 13.02C86.9044 16.14 84.3244 18.3 80.7644 18.3C77.2644 18.3 74.6444 16.04 74.6444 13.02ZM77.4444 13.02C77.4444 14.58 78.8644 15.7 80.7644 15.7C82.7644 15.7 84.1044 14.58 84.1044 13.02C84.1044 11.42 82.7644 10.28 80.7644 10.28C78.8444 10.28 77.4444 11.42 77.4444 13.02ZM96.6386 4V18H93.8386V4H96.6386ZM111.291 18H108.811L108.531 16.68C107.511 17.7 106.051 18.3 104.351 18.3C101.031 18.3 98.5311 16.04 98.5311 13.02C98.5311 9.96 101.011 7.7 104.351 7.7C106.031 7.7 107.511 8.28 108.531 9.32L108.811 8H111.291V18ZM101.331 13.02C101.331 14.64 102.851 15.82 104.951 15.82C107.071 15.82 108.491 14.68 108.491 13.02C108.491 11.34 107.051 10.16 104.951 10.16C102.851 10.16 101.331 11.36 101.331 13.02ZM116.618 16.7L116.358 18H113.858V4H116.658V9.26C117.678 8.26 119.118 7.7 120.778 7.7C124.118 7.7 126.598 9.96 126.598 13.02C126.598 16.04 124.098 18.3 120.778 18.3C119.098 18.3 117.638 17.72 116.618 16.7ZM123.798 13.02C123.798 11.36 122.318 10.16 120.178 10.16C118.078 10.16 116.658 11.34 116.658 13.02C116.658 14.68 118.078 15.82 120.178 15.82C122.278 15.82 123.798 14.64 123.798 13.02Z" fill="black"/>
<path d="M311.528 360.568V375H307.048V352.6H312.744L319.976 369.656L327.176 352.6H332.872V375H328.392V360.632L322.216 375H317.704L311.528 360.568ZM335.993 363.832C335.993 357.08 341.242 352.12 348.282 352.12C355.29 352.12 360.538 356.824 360.538 363.832C360.538 370.744 355.29 375.48 348.282 375.48C341.274 375.48 335.993 370.488 335.993 363.832ZM340.474 363.832C340.474 368.152 343.738 371.192 348.282 371.192C352.922 371.192 356.058 368.152 356.058 363.832C356.058 359.416 352.922 356.408 348.282 356.408C343.706 356.408 340.474 359.416 340.474 363.832ZM379.162 375L374.202 368.472H368.122V375H363.642V352.6H375.162C379.962 352.6 383.93 355.768 383.93 360.536C383.93 363.672 381.882 366.296 379.098 367.608L384.73 375H379.162ZM379.45 360.536C379.45 358.328 377.658 356.728 375.162 356.728H368.122V364.28H375.162C377.626 364.28 379.45 362.648 379.45 360.536ZM386.704 375V352.6H398.16C402.96 352.6 406.992 355.768 406.992 360.536C406.992 365.048 402.736 368.472 398.16 368.472H391.184V375H386.704ZM402.512 360.536C402.512 358.328 400.656 356.728 398.16 356.728H391.184V364.28H398.16C400.624 364.28 402.512 362.648 402.512 360.536ZM410.142 375V352.6H414.622V361.72H426.878V352.6H431.358V375H426.878V365.848H414.622V375H410.142ZM434.4 363.832C434.4 357.08 439.648 352.12 446.688 352.12C453.696 352.12 458.944 356.824 458.944 363.832C458.944 370.744 453.696 375.48 446.688 375.48C439.68 375.48 434.4 370.488 434.4 363.832ZM438.88 363.832C438.88 368.152 442.144 371.192 446.688 371.192C451.328 371.192 454.464 368.152 454.464 363.832C454.464 359.416 451.328 356.408 446.688 356.408C442.112 356.408 438.88 359.416 438.88 363.832ZM307.048 415V392.6H311.528V410.712H324.84V415H307.048ZM326.363 415L337.595 392.6H342.587L353.883 415H348.891L346.235 409.72H333.979L331.323 415H326.363ZM336.027 405.624H344.155L340.091 397.56L336.027 405.624ZM355.392 415V392.6H366.72C371.36 392.6 374.496 394.904 374.496 398.456C374.496 400.664 373.12 402.488 371.008 403.512C373.792 404.44 375.52 406.296 375.52 408.76C375.52 412.504 371.776 415 366.72 415H355.392ZM370.208 399.16C370.208 397.528 368.736 396.44 366.72 396.44H359.872V401.816H366.72C368.608 401.816 370.208 400.696 370.208 399.16ZM371.008 408.344C371.008 406.52 369.408 405.528 366.72 405.528H359.872V411.128H366.72C369.312 411.128 371.008 410.072 371.008 408.344Z" fill="black"/>
<rect x="1" y="37" width="39" height="39" fill="#324746"/>
<rect x="1" y="87" width="39" height="39" fill="#FDB920"/>
<rect x="1" y="140" width="39" height="39" fill="#D9D9D9"/>
<defs>
<linearGradient id="paint0_linear_354_628" x1="386" y1="442" x2="386" y2="691" gradientUnits="userSpaceOnUse">
<stop stop-color="#D9D9D9"/>
<stop offset="1" stop-color="#D9D9D9" stop-opacity="0"/>
</linearGradient>
</defs>
</svg>
